<svg width="16" height="16" viewBox="0 0 16 16" fill="none" xmlns="http://www.w3.org/2000/svg">
<path d="M14 8C14 9.59129 13.3679 11.1174 12.2427 12.2426C11.1174 13.3679 9.59132 14 8.00003 14C6.40873 14 4.8826 13.3679 3.75739 12.2426C2.63217 11.1174 2.00003 9.59129 2.00003 8C2.00003 6.4087 2.63217 4.88257 3.75739 3.75735C4.8826 2.63214 6.40873 2 8.00003 2C9.59132 2 11.1174 2.63214 12.2427 3.75735C13.3679 4.88257 14 6.4087 14 8ZM1.14288 8C1.14288 9.81862 1.86533 11.5628 3.15129 12.8487C4.43726 14.1347 6.1814 14.8571 8.00003 14.8571C9.81865 14.8571 11.5628 14.1347 12.8488 12.8487C14.1347 11.5628 14.8572 9.81862 14.8572 8C14.8572 6.18137 14.1347 4.43723 12.8488 3.15126C11.5628 1.8653 9.81865 1.14285 8.00003 1.14285C6.1814 1.14285 4.43726 1.8653 3.15129 3.15126C1.86533 4.43723 1.14288 6.18137 1.14288 8ZM7.57145 4.14285V8C7.57145 8.14196 7.64378 8.27589 7.76163 8.35624L10.3331 10.0705C10.5313 10.2018 10.7965 10.1482 10.9277 9.95267C11.059 9.75714 11.0054 9.48928 10.8098 9.35803L8.4286 7.76964V4.14285C8.4286 3.90714 8.23574 3.71428 8.00003 3.71428C7.76431 3.71428 7.57145 3.90714 7.57145 4.14285Z" fill="white"/>
</svg>
